<?xml version="1.0" encoding="utf-8"?>
<!-- Generator: Adobe Illustrator 22.1.0, SVG Export Plug-In . SVG Version: 6.00 Build 0)  -->
<svg version="1.1" id="Layer_1" xmlns="http://www.w3.org/2000/svg" xmlns:xlink="http://www.w3.org/1999/xlink" x="0px" y="0px"
	 viewBox="0 0 512 512" style="enable-background:new 0 0 512 512;" xml:space="preserve">
<g>
	<path d="M334.9,140.3L347,339.6l-8.8-0.2c-29-0.7-57.3,7-82.2,22.4c-24.8-15.4-53.2-22.4-82.2-22.4c-36.5,0-65.7,8.6-98.9,22.2
		l25-206.8c22.9-9.4,49.2-14.5,73.8-14.5c33,0,59.1,10.5,82.2,34.1C278.2,151.7,303.2,141,334.9,140.3z M481,409.7
		c-20.4,0-38-4.2-56.5-12.5c-27.5-12.5-56-20-86.4-20c-31.2,0-60,10.3-82.2,32.5c-22.2-22.2-51-32.5-82.2-32.5
		c-30.3,0-58.9,7.5-86.4,20c-17.8,7.9-35.8,12.5-55.4,12.5H31l34.1-279.5c31.4-17.8,69.7-27.9,105.9-27.9c29.7,0,60.2,6.2,85,23.3
		c24.8-17.1,55.4-23.3,85-23.3c36.3,0,74.5,10.1,105.9,27.9L481,409.7z M446.3,373.9L419,149.5c-24.6-11.2-53.8-17.1-80.9-17.1
		c-30.8,0-59.5,9.7-82.2,31c-22.6-21.3-51.4-31-82.2-31c-27,0-56.2,5.9-80.9,17.1L65.7,373.9c37.8-15.6,66.4-26.8,108.1-26.8
		c30.1,0,56.7,7.7,82.2,23.7c25.5-16,52.1-23.7,82.2-23.7C379.9,347.1,408.5,358.3,446.3,373.9L446.3,373.9z"/>
</g>
</svg>
